<svg id="color" enable-background="new 0 0 24 24" height="512" viewBox="0 0 24 24" width="512" xmlns="http://www.w3.org/2000/svg"><path d="m24 8.65v1.59l-11.07 5.78c-.58.3-1.28.3-1.86 0l-11.07-5.78v-1.59c0-.83.46-1.59 1.19-1.98l9.75-5.21c.66-.35 1.46-.35 2.12 0l9.75 5.21c.73.39 1.19 1.15 1.19 1.98z" fill="#2196f3"/><path d="m21 2.75c0-1.519-1.231-2.75-2.75-2.75h-12.5c-1.519 0-2.75 1.231-2.75 2.75v17.32c0 .414.336.75.75.75h16.5c.414 0 .75-.336.75-.75z" fill="#eceff1"/><path d="m3 5.703-1.81.967c-.73.39-1.19 1.15-1.19 1.98v1.59l3 1.566z" fill="#1d83d4"/><path d="m12 0h-6.25c-1.519 0-2.75 1.231-2.75 2.75v2.953 6.104l8.07 4.214c.29.15.61.225.93.225z" fill="#cdd0d2"/><path d="m24 10.24v10.51c0 1.24-1.01 2.25-2.25 2.25h-19.5c-1.24 0-2.25-1.01-2.25-2.25v-10.51l11.07 5.78c.58.3 1.28.3 1.86 0z" fill="#64b5f6"/><path d="m17 8c0 2.758-2.242 5-5 5-1.383 0-2.633-.558-3.533-1.467l3.533-3.533v-5c2.758 0 5 2.242 5 5z" fill="#2196f3"/><path d="m12 3v5l-3.533 3.533c-.909-.9-1.467-2.15-1.467-3.533 0-2.758 2.242-5 5-5z" fill="#ffc107"/><path d="m17 8h-5l-3.533 3.533c.899.908 2.149 1.467 3.533 1.467 2.759 0 5-2.241 5-5z" fill="#1d83d4"/><path d="m12 8h-5c0 1.384.559 2.634 1.467 3.533z" fill="#dea806"/><path d="m0 10.24v10.51c0 1.24 1.01 2.25 2.25 2.25h9.75v-6.755c-.32 0-.64-.075-.93-.225l-8.07-4.213z" fill="#579ed6"/></svg>